<mxfile host="65bd71144e">
    <diagram id="fjN8D4Odn0497USpxgly" name="Page-1">
        <mxGraphModel dx="2535" dy="779" grid="1" gridSize="10" guides="1" tooltips="1" connect="1" arrows="1" fold="1" page="1" pageScale="1" pageWidth="1169" pageHeight="827" background="#FFFFFF" math="0" shadow="0">
            <root>
                <mxCell id="0"/>
                <mxCell id="1" parent="0"/>
                <mxCell id="455" value="&lt;font style=&quot;font-size: 17px&quot;&gt;RIOT Device&lt;/font&gt;" style="rounded=0;whiteSpace=wrap;html=1;fillColor=#e1d5e7;strokeColor=#9673a6;horizontal=0;align=center;verticalAlign=bottom;spacingBottom=22;" vertex="1" parent="1">
                    <mxGeometry x="-840" y="40" width="620" height="250" as="geometry"/>
                </mxCell>
                <mxCell id="457" value="" style="rounded=0;whiteSpace=wrap;html=1;fillColor=#f5f5f5;strokeColor=#666666;fontColor=#333333;" vertex="1" parent="1">
                    <mxGeometry x="-830" y="50" width="460" height="160" as="geometry"/>
                </mxCell>
                <mxCell id="459" value="&lt;span style=&quot;font-size: 13px;&quot;&gt;sys / rgb_led / 0 / red -&amp;gt; 27&lt;/span&gt;" style="edgeStyle=elbowEdgeStyle;rounded=0;html=1;" edge="1" parent="1" source="487" target="473">
                    <mxGeometry x="-0.064" y="20" relative="1" as="geometry">
                        <mxPoint x="-1019.1700000000001" y="80" as="sourcePoint"/>
                        <mxPoint x="-810" y="110" as="targetPoint"/>
                        <Array as="points">
                            <mxPoint x="-910" y="80"/>
                            <mxPoint x="-1030" y="80"/>
                        </Array>
                        <mxPoint as="offset"/>
                    </mxGeometry>
                </mxCell>
                <mxCell id="464" value="&lt;font style=&quot;font-size: 17px&quot;&gt;RIOT Registry&lt;/font&gt;" style="rounded=0;whiteSpace=wrap;html=1;fillColor=#dae8fc;strokeColor=#6c8ebf;" vertex="1" parent="1">
                    <mxGeometry x="-830" y="220" width="540" height="60" as="geometry"/>
                </mxCell>
                <mxCell id="466" value="" style="edgeStyle=elbowEdgeStyle;rounded=0;html=1;entryX=0.5;entryY=1;entryDx=0;entryDy=0;" edge="1" parent="1" source="464" target="468">
                    <mxGeometry relative="1" as="geometry">
                        <mxPoint x="-1050" y="295" as="targetPoint"/>
                        <mxPoint x="-634" y="305" as="sourcePoint"/>
                    </mxGeometry>
                </mxCell>
                <mxCell id="467" value="&lt;font style=&quot;font-size: 13px&quot;&gt;results&lt;/font&gt;" style="edgeLabel;html=1;align=center;verticalAlign=middle;resizable=0;points=[];fontSize=15;" vertex="1" connectable="0" parent="466">
                    <mxGeometry x="-0.3294" y="2" relative="1" as="geometry">
                        <mxPoint x="25" y="-5" as="offset"/>
                    </mxGeometry>
                </mxCell>
                <mxCell id="468" value="&lt;font style=&quot;font-size: 13px&quot;&gt;All &lt;br&gt;results &lt;br&gt;&amp;gt;= 0&lt;/font&gt;" style="rhombus;whiteSpace=wrap;html=1;" vertex="1" parent="1">
                    <mxGeometry x="-675" y="115" width="80" height="80" as="geometry"/>
                </mxCell>
                <mxCell id="469" value="&lt;font style=&quot;font-size: 13px&quot;&gt;No&lt;/font&gt;" style="edgeStyle=elbowEdgeStyle;rounded=0;html=1;exitX=0;exitY=0;exitDx=0;exitDy=0;entryX=1;entryY=0.5;entryDx=0;entryDy=0;" edge="1" parent="1" source="468" target="485">
                    <mxGeometry x="-0.4444" relative="1" as="geometry">
                        <mxPoint x="-634" y="130" as="targetPoint"/>
                        <mxPoint as="offset"/>
                        <mxPoint x="-920" y="30" as="sourcePoint"/>
                        <Array as="points">
                            <mxPoint x="-710" y="130"/>
                        </Array>
                    </mxGeometry>
                </mxCell>
                <mxCell id="470" value="&lt;font style=&quot;font-size: 13px&quot;&gt;Yes&lt;/font&gt;" style="edgeStyle=elbowEdgeStyle;rounded=0;html=1;startArrow=none;exitX=0;exitY=1;exitDx=0;exitDy=0;entryX=1;entryY=0.5;entryDx=0;entryDy=0;" edge="1" parent="1" source="468" target="476">
                    <mxGeometry x="-0.4444" relative="1" as="geometry">
                        <mxPoint x="-624" y="130" as="targetPoint"/>
                        <mxPoint as="offset"/>
                        <mxPoint x="-750" y="270" as="sourcePoint"/>
                        <Array as="points">
                            <mxPoint x="-710" y="180"/>
                            <mxPoint x="-690" y="240"/>
                            <mxPoint x="-690" y="230"/>
                        </Array>
                    </mxGeometry>
                </mxCell>
                <mxCell id="471" value="LwM2M Client" style="rounded=0;whiteSpace=wrap;html=1;fillColor=#f5f5f5;strokeColor=#666666;fontColor=#333333;horizontal=0;" vertex="1" parent="1">
                    <mxGeometry x="-360" y="50" width="70" height="160" as="geometry"/>
                </mxCell>
                <mxCell id="473" value="&lt;font color=&quot;#000000&quot; style=&quot;font-size: 13px&quot;&gt;receive&lt;/font&gt;" style="rounded=0;whiteSpace=wrap;html=1;labelBackgroundColor=none;fontSize=17;" vertex="1" parent="1">
                    <mxGeometry x="-820" y="60" width="80" height="40" as="geometry"/>
                </mxCell>
                <mxCell id="476" value="&lt;font color=&quot;#000000&quot; style=&quot;font-size: 13px&quot;&gt;send 204&lt;/font&gt;" style="rounded=0;whiteSpace=wrap;html=1;labelBackgroundColor=none;fontSize=17;" vertex="1" parent="1">
                    <mxGeometry x="-820" y="160" width="80" height="40" as="geometry"/>
                </mxCell>
                <mxCell id="477" value="&lt;font style=&quot;font-size: 13px&quot;&gt;COAP 204&lt;/font&gt;" style="edgeStyle=elbowEdgeStyle;rounded=0;html=1;startArrow=none;" edge="1" parent="1" source="476" target="487">
                    <mxGeometry x="-0.1973" y="-10" relative="1" as="geometry">
                        <mxPoint x="-1019.1700000000001" y="180" as="targetPoint"/>
                        <mxPoint as="offset"/>
                        <mxPoint x="-770" y="280" as="sourcePoint"/>
                        <Array as="points">
                            <mxPoint x="-1000" y="180"/>
                        </Array>
                    </mxGeometry>
                </mxCell>
                <mxCell id="485" value="&lt;font color=&quot;#000000&quot; style=&quot;font-size: 13px&quot;&gt;send 4??&lt;/font&gt;" style="rounded=0;whiteSpace=wrap;html=1;labelBackgroundColor=none;fontSize=17;" vertex="1" parent="1">
                    <mxGeometry x="-820" y="110" width="80" height="40" as="geometry"/>
                </mxCell>
                <mxCell id="486" value="&lt;font style=&quot;font-size: 13px&quot;&gt;COAP 4??&lt;/font&gt;" style="edgeStyle=elbowEdgeStyle;rounded=0;html=1;startArrow=none;" edge="1" parent="1" source="485" target="487">
                    <mxGeometry x="-0.1638" y="-10" relative="1" as="geometry">
                        <mxPoint x="-1019.1700000000001" y="140" as="targetPoint"/>
                        <Array as="points">
                            <mxPoint x="-990" y="140"/>
                        </Array>
                        <mxPoint as="offset"/>
                        <mxPoint x="-810" y="140" as="sourcePoint"/>
                    </mxGeometry>
                </mxCell>
                <mxCell id="487" value="" style="points=[];aspect=fixed;html=1;align=center;shadow=0;dashed=0;image;image=img/lib/allied_telesis/computer_and_terminals/Personal_Computer.svg;fillColor=none;" vertex="1" parent="1">
                    <mxGeometry x="-1120" y="40" width="118.06" height="160" as="geometry"/>
                </mxCell>
                <mxCell id="488" value="&lt;font style=&quot;font-size: 13px&quot;&gt;&lt;font style=&quot;font-size: 13px&quot;&gt;registry_set_uint8([0, 4, 0, 0], 27)&lt;br&gt;&lt;/font&gt;&lt;/font&gt;" style="edgeStyle=elbowEdgeStyle;rounded=0;html=1;" edge="1" parent="1" source="473" target="464">
                    <mxGeometry x="0.6667" y="30" relative="1" as="geometry">
                        <mxPoint x="-480" y="250" as="targetPoint"/>
                        <mxPoint as="offset"/>
                        <mxPoint x="-479.99" y="140" as="sourcePoint"/>
                        <Array as="points">
                            <mxPoint x="-520" y="120"/>
                            <mxPoint x="-479.99" y="270"/>
                            <mxPoint x="-429.99" y="220"/>
                        </Array>
                    </mxGeometry>
                </mxCell>
                <mxCell id="489" value="" style="endArrow=none;html=1;fontSize=9;fontColor=#999999;strokeColor=#999999;strokeWidth=0.5;" edge="1" parent="1">
                    <mxGeometry width="50" height="50" relative="1" as="geometry">
                        <mxPoint x="-428.99" y="201" as="sourcePoint"/>
                        <mxPoint x="-426.99" y="195" as="targetPoint"/>
                    </mxGeometry>
                </mxCell>
                <mxCell id="490" value="" style="group" vertex="1" connectable="0" parent="1">
                    <mxGeometry x="-510" y="120" width="170" height="30" as="geometry"/>
                </mxCell>
                <mxCell id="491" value="" style="endArrow=none;html=1;fontSize=9;fontColor=#999999;strokeColor=#999999;strokeWidth=0.5;" edge="1" parent="490">
                    <mxGeometry width="50" height="50" relative="1" as="geometry">
                        <mxPoint x="31" y="27" as="sourcePoint"/>
                        <mxPoint x="33" y="21" as="targetPoint"/>
                    </mxGeometry>
                </mxCell>
                <mxCell id="492" value="&lt;span style=&quot;font-family: &amp;#34;helvetica&amp;#34; ; font-style: normal ; font-weight: 400 ; letter-spacing: normal ; text-align: center ; text-indent: 0px ; text-transform: none ; word-spacing: 0px ; display: inline ; float: none&quot;&gt;&lt;font style=&quot;font-size: 9px&quot; color=&quot;#999999&quot;&gt;SYS / rgb_led / Instance 0 / red&lt;/font&gt;&lt;/span&gt;" style="text;whiteSpace=wrap;html=1;fillColor=none;" vertex="1" parent="490">
                    <mxGeometry width="170" height="30" as="geometry"/>
                </mxCell>
            </root>
        </mxGraphModel>
    </diagram>
</mxfile>